<svg width="215" height="38" viewBox="0 0 215 38" fill="none" xmlns="http://www.w3.org/2000/svg">
<path d="M0 35.6397C10.7912 30.2737 24.1628 21.8544 24.5928 21.7242C33.8238 19.722 63.4872 29.8633 77.1988 36.5707V35.3494C62.7171 27.6208 61.517 22.2948 40.7346 0.420495C40.4346 0.100139 39.5145 -0.0199951 39.4745 0.0400718C36.8342 3.85432 22.4226 20.7932 0.0500057 34.7888L0 35.6397Z" fill="#585866"/>
<path d="M20.4127 7.07788C17.9424 7.33817 15.6421 7.66854 14.702 8.87988C14.172 9.7909 13.9719 11.9133 13.7419 13.7653H13.3219C13.1218 11.8632 12.8718 9.73083 12.2217 8.7998C11.2916 7.69857 9.02137 7.41826 6.62109 7.11792V6.69745C9.09137 6.43716 11.3916 6.1068 12.3317 4.89545C12.8618 3.98443 13.0618 1.86207 13.2919 0.0100098H13.7119C13.9119 1.91213 14.162 4.0445 14.812 4.97554C15.7421 6.07676 18.0124 6.35708 20.4127 6.65741V7.07788Z" fill="#585866"/>
<path d="M95.311 0.370422H97.5113L106.312 18.4105H104.172C103.102 16.3582 102.152 14.4761 101.432 12.2436L101.152 12.0334C96.9712 12.4339 95.7211 12.4539 91.7306 12.0334L91.4306 12.2637C90.7105 14.2058 89.6404 16.4483 88.6402 18.4105H86.5L95.311 0.370422ZM100.392 10.8621L100.582 10.6519C99.0014 7.8087 97.7013 5.1958 96.7212 2.1424H96.0711C95.021 5.1958 93.7208 7.8988 92.1707 10.6318L92.3407 10.8621C95.551 10.5217 97.2412 10.4416 100.402 10.8621H100.392Z" fill="#585866"/>
<path d="M116.584 0.370422H118.444C123.135 5.43606 127.335 10.2214 131.746 15.7876H132.066C131.626 10.3816 131.696 4.89546 131.696 0.370422H133.716V18.4105H131.836C127.685 13.9255 122.945 8.74975 118.554 3.26364H118.234C118.674 8.57956 118.634 13.0646 118.634 18.4105H116.594V0.370422H116.584Z" fill="#585866"/>
<path d="M146.506 0.370422H154.167C161.408 0.370422 164.468 4.3949 164.468 9.27033C164.468 14.6363 160.727 18.4005 154.417 18.4005H146.506V0.370422ZM154.517 16.6886C159.277 16.6886 162.338 14.0256 162.338 9.40048C162.338 4.54507 159.017 2.07232 153.697 2.07232C152.046 2.07232 150.376 2.07232 148.476 1.75196L148.176 1.98222C148.596 6.97778 148.616 11.7831 148.196 16.7286L148.476 17.0089C150.656 16.6886 152.607 16.6886 154.517 16.6886Z" fill="#585866"/>
<path d="M175.871 0.370422H189.543V2.08233C185.802 2.08233 182.072 2.17243 177.841 1.76197L177.541 1.99223C177.861 4.04451 177.891 6.21693 177.581 8.39936L177.831 8.64964C181.842 8.27923 185.382 8.27923 188.973 8.27923V10.0312C185.372 10.0312 181.842 10.0312 177.831 9.63073L177.581 9.88101C177.881 12.1235 177.901 14.4161 177.561 16.7286L177.841 17.0089C182.142 16.6385 185.962 16.6385 189.823 16.6385V18.3905H175.871V0.370422Z" fill="#585866"/>
<path d="M199.313 13.495L201.193 12.8743C202.123 15.7175 204.674 17.059 207.504 17.059C209.914 17.059 212.704 16.0879 212.704 13.7053C212.704 11.3226 210.144 10.9822 208.084 10.4516L206.064 9.92104C203.993 9.39045 200.103 8.27922 200.103 4.87543C200.103 1.47164 203.633 0 207.154 0C210.674 0 213.375 1.59177 214.325 4.30479L212.494 4.99556C211.704 3.01335 209.704 1.71191 206.944 1.71191C204.344 1.71191 202.203 2.89322 202.203 4.71525C202.203 6.99779 205.474 7.83873 206.774 8.17911L208.914 8.74974C211.324 9.40047 214.875 10.1613 214.875 13.445C214.875 16.7286 211.454 18.7909 207.464 18.7909C204.214 18.7909 200.563 17.3994 199.293 13.495H199.313Z" fill="#585866"/>
<path d="M208.132 34.3108V28.6006C208.132 27.9324 208.132 27.2641 208.117 26.6719H209.104C209.135 26.8997 209.165 27.8109 209.15 28.0387C209.469 27.3097 210.091 26.4896 211.625 26.4896C213.023 26.4896 214.192 27.2945 214.192 29.3751V34.3108H213.174V29.5118C213.174 28.2513 212.658 27.416 211.398 27.416C209.757 27.416 209.15 28.7373 209.15 30.3471V34.3108H208.132Z" fill="#585866"/>
<path d="M202.268 26.4896C204.349 26.4896 205.716 28.069 205.716 30.4686C205.716 32.6403 204.501 34.493 202.192 34.493C200.066 34.493 198.775 32.7921 198.775 30.4989C198.775 28.2817 200.021 26.4896 202.268 26.4896ZM202.223 27.3856C200.613 27.3856 199.823 28.6917 199.823 30.4837C199.823 32.2454 200.75 33.597 202.253 33.597C203.787 33.597 204.653 32.3365 204.653 30.4989C204.653 28.7221 203.802 27.3856 202.223 27.3856Z" fill="#585866"/>
<path d="M195.336 34.3108V26.6719H196.353V34.3108H195.336ZM196.353 24.6976H195.336V23.1334H196.353V24.6976Z" fill="#585866"/>
<path d="M189.066 27.5527V26.6718H190.448V24.3483H191.466V26.6718H193.228V27.5527H191.466V32.2909C191.466 33.0958 191.648 33.5363 192.362 33.5363C192.575 33.5363 192.863 33.5211 193.091 33.4603V34.2804C192.802 34.3867 192.407 34.4171 192.058 34.4171C190.98 34.4171 190.448 33.8704 190.448 32.625V27.5527H189.066Z" fill="#585866"/>
<path d="M184.282 26.4896C186.363 26.4896 187.729 28.069 187.729 30.4686C187.729 32.6403 186.514 34.493 184.206 34.493C182.08 34.493 180.789 32.7921 180.789 30.4989C180.789 28.2817 182.034 26.4896 184.282 26.4896ZM184.236 27.3856C182.627 27.3856 181.837 28.6917 181.837 30.4837C181.837 32.2454 182.763 33.597 184.267 33.597C185.801 33.597 186.666 32.3365 186.666 30.4989C186.666 28.7221 185.816 27.3856 184.236 27.3856Z" fill="#585866"/>
<path d="M168.048 34.3108V28.6461C168.048 27.9779 168.048 27.2793 168.033 26.6719H169.02C169.036 26.9149 169.066 27.5223 169.051 27.9476C169.385 27.2186 170.083 26.4896 171.314 26.4896C172.392 26.4896 173.197 27.0212 173.485 27.9324C173.88 27.173 174.624 26.4896 175.961 26.4896C177.16 26.4896 178.36 27.1882 178.36 29.284V34.3108H177.358V29.4055C177.358 28.4487 177.009 27.416 175.687 27.416C174.321 27.416 173.698 28.4943 173.698 29.9218V34.3108H172.711V29.4359C172.711 28.3728 172.392 27.416 171.086 27.416C169.719 27.416 169.051 28.5854 169.051 30.0889V34.3108H168.048Z" fill="#585866"/>
<path d="M154.494 34.3108V28.6006C154.494 27.9324 154.494 27.2641 154.479 26.6719H155.466C155.496 26.8997 155.526 27.8109 155.511 28.0387C155.83 27.3097 156.453 26.4896 157.987 26.4896C159.384 26.4896 160.553 27.2945 160.553 29.3751V34.3108H159.536V29.5118C159.536 28.2513 159.019 27.416 157.759 27.416C156.119 27.416 155.511 28.7373 155.511 30.3471V34.3108H154.494Z" fill="#585866"/>
<path d="M150.475 34.3108V26.6719H151.492V34.3108H150.475ZM151.492 24.6976H150.475V23.1334H151.492V24.6976Z" fill="#585866"/>
<path d="M137.254 26.6719H138.363C139.775 30.7116 140.443 32.6251 140.686 33.43H140.701C140.975 32.5188 141.552 30.7571 142.934 26.6719H143.966L141.157 34.7057C140.352 36.9685 139.805 37.5 138.332 37.5C138.074 37.5 137.846 37.4848 137.573 37.4545V36.5129C137.785 36.5433 138.013 36.5585 138.241 36.5585C139.274 36.5585 139.638 36.0725 140.155 34.6297L137.254 26.6719Z" fill="#585866"/>
<path d="M131.588 27.5527V26.6718H132.97V24.3483H133.987V26.6718H135.749V27.5527H133.987V32.2909C133.987 33.0958 134.17 33.5363 134.883 33.5363C135.096 33.5363 135.385 33.5211 135.612 33.4603V34.2804C135.324 34.3867 134.929 34.4171 134.58 34.4171C133.501 34.4171 132.97 33.8704 132.97 32.625V27.5527H131.588Z" fill="#585866"/>
<path d="M128.559 34.3108V26.6719H129.576V34.3108H128.559ZM129.576 24.6976H128.559V23.1334H129.576V24.6976Z" fill="#585866"/>
<path d="M122.937 34.3108V28.7525C122.937 27.5679 122.922 26.9908 122.922 26.6719H123.909C123.939 26.8997 123.955 27.4464 123.955 28.312C124.38 27.2186 125.321 26.5352 126.567 26.4896V27.5375C124.987 27.6134 123.955 28.5854 123.955 30.4534V34.3108H122.937Z" fill="#585866"/>
<path d="M119.948 26.6719V32.0784C119.948 32.8225 119.963 33.9463 119.963 34.3108H118.976C118.945 34.1134 118.93 33.6274 118.93 33.0655C118.581 33.9463 117.822 34.4931 116.531 34.4931C115.346 34.4931 114.01 33.9615 114.01 31.7139V26.6719H115.027V31.4861C115.027 32.5491 115.361 33.5667 116.759 33.5667C118.323 33.5667 118.93 32.6858 118.93 30.6204V26.6719H119.948Z" fill="#585866"/>
<path d="M110.785 32.0176H111.802C111.453 33.354 110.572 34.493 108.75 34.493C106.76 34.493 105.424 33.0351 105.424 30.5293C105.424 28.4032 106.593 26.4896 108.841 26.4896C110.906 26.4896 111.681 27.9476 111.802 28.9803H110.785C110.572 28.145 110.041 27.3856 108.826 27.3856C107.337 27.3856 106.487 28.6613 106.487 30.4837C106.487 32.2758 107.292 33.597 108.765 33.597C109.813 33.597 110.42 33.0655 110.785 32.0176Z" fill="#585866"/>
<path d="M103.503 30.6508H97.9897C97.9897 32.4276 98.8857 33.597 100.283 33.597C101.619 33.597 102.06 32.8681 102.318 32.2758H103.351C103.032 33.2781 102.227 34.493 100.253 34.493C97.8834 34.493 96.957 32.5188 96.957 30.5597C96.957 28.3424 98.0657 26.4896 100.328 26.4896C102.743 26.4896 103.518 28.4943 103.518 30.013C103.518 30.2408 103.518 30.4534 103.503 30.6508ZM98.0353 29.8611H102.47C102.455 28.4639 101.726 27.3553 100.313 27.3553C98.8402 27.3553 98.1872 28.3728 98.0353 29.8611Z" fill="#585866"/>
<path d="M87.2891 31.4101H88.4129C88.7166 32.7618 89.6126 33.5363 91.268 33.5363C93.0752 33.5363 93.7738 32.6555 93.7738 31.562C93.7738 30.423 93.2575 29.7548 91.0098 29.2081C88.6559 28.6158 87.7295 27.8413 87.7295 26.3226C87.7295 24.8495 88.8077 23.5586 91.1313 23.5586C93.546 23.5586 94.5635 25.0013 94.7002 26.3378H93.5916C93.3638 25.2899 92.6955 24.485 91.0858 24.485C89.6582 24.485 88.8685 25.138 88.8685 26.2466C88.8685 27.3249 89.5215 27.7501 91.435 28.2209C94.442 28.9651 94.928 30.1496 94.928 31.4709C94.928 33.0959 93.7282 34.4323 91.2072 34.4323C88.5496 34.4323 87.5017 32.9288 87.2891 31.4101Z" fill="#585866"/>
</svg>
