<svg width="356" height="57" viewBox="0 0 356 57" fill="none" xmlns="http://www.w3.org/2000/svg">
<g clip-path="url(#clip0_351_348)">
<path d="M0 54.67C16.58 46.44 37.13 33.51 37.79 33.31C51.98 30.23 97.55 45.8 118.61 56.1V54.23C96.37 42.36 94.52 34.19 62.59 0.619982C62.13 0.119982 60.71 -0.0500176 60.66 0.0399824C56.59 5.87998 34.45 31.89 0.07 53.37L0 54.67Z" fill="#585866"/>
<path d="M31.6905 10.8C27.9005 11.2 24.3805 11.7 22.9505 13.55C22.1305 14.95 21.8305 18.18 21.4805 21.03H20.8305C20.5205 18.12 20.1505 14.85 19.1405 13.44C17.7105 11.75 14.2405 11.32 10.5605 10.87V10.23C14.3505 9.83 17.8705 9.33 19.3005 7.48C20.1205 6.08 20.4205 2.85 20.7705 0H21.4205C21.7305 2.91 22.1005 6.18 23.1105 7.59C24.5405 9.28 28.0105 9.71 31.6905 10.16V10.8Z" fill="#585866"/>
<path d="M152.83 11.67H156.56L171.46 42.16H167.84C166.03 38.68 164.42 35.51 163.21 31.73L162.73 31.38C155.65 32.05 153.54 32.09 146.78 31.38L146.27 31.77C145.05 35.05 143.24 38.85 141.55 42.17H137.93L152.83 11.68V11.67ZM161.44 29.43L161.76 29.08C159.08 24.28 156.88 19.85 155.23 14.7H154.13C152.36 19.86 150.16 24.43 147.53 29.05L147.81 29.44C153.24 28.86 156.1 28.73 161.45 29.44H161.44V29.43Z" fill="#585866"/>
<path d="M188.85 11.67H191.99C199.92 20.23 207.03 28.33 214.5 37.74H215.05C214.3 28.6 214.43 19.33 214.43 11.67H217.85V42.16H214.67C207.64 34.57 199.63 25.82 192.19 16.55H191.64C192.39 25.54 192.31 33.12 192.31 42.16H188.85V11.67Z" fill="#585866"/>
<path d="M239.49 11.67H252.46C264.72 11.67 269.9 18.47 269.9 26.72C269.9 35.79 263.57 42.16 252.89 42.16H239.49V11.67ZM253.05 39.27C261.1 39.27 266.29 34.77 266.29 26.95C266.29 18.74 260.67 14.56 251.67 14.56C248.88 14.56 246.05 14.56 242.83 14.01L242.32 14.4C243.03 22.85 243.07 30.97 242.36 39.34L242.84 39.81C246.53 39.26 249.83 39.26 253.06 39.26L253.05 39.27Z" fill="#585866"/>
<path d="M289.189 11.67H312.339V14.56C306.009 14.56 299.689 14.72 292.539 14.01L292.029 14.4C292.579 17.88 292.619 21.55 292.099 25.23L292.529 25.66C299.329 25.04 305.299 25.04 311.389 25.04V28.01C305.299 28.01 299.329 28.01 292.529 27.34L292.099 27.77C292.609 31.56 292.649 35.43 292.059 39.35L292.539 39.82C299.809 39.2 306.289 39.2 312.819 39.2V42.17H289.209V11.67H289.199H289.189Z" fill="#585866"/>
<path d="M328.86 33.88L332.04 32.82C333.62 37.62 337.93 39.9 342.72 39.9C346.8 39.9 351.52 38.26 351.52 34.23C351.52 30.2 347.19 29.62 343.7 28.72L340.28 27.82C336.78 26.92 330.18 25.05 330.18 19.3C330.18 13.55 336.16 11.06 342.12 11.06C348.08 11.06 352.66 13.76 354.26 18.33L351.16 19.5C349.83 16.14 346.44 13.94 341.77 13.94C337.37 13.94 333.75 15.93 333.75 19.02C333.75 22.89 339.29 24.3 341.49 24.88L345.11 25.85C349.19 26.94 355.21 28.23 355.21 33.79C355.21 39.35 349.43 42.82 342.67 42.82C337.17 42.82 331 40.47 328.84 33.87H328.88L328.86 33.88Z" fill="#585866"/>
</g>
<defs>
<clipPath id="clip0_351_348">
<rect width="355.2" height="56.09" fill="white"/>
</clipPath>
</defs>
</svg>
