<svg width="444" height="237" viewBox="0 0 444 237" fill="none" xmlns="http://www.w3.org/2000/svg">
<g clip-path="url(#clip0_351_338)">
<path d="M95.1323 117.174C130.617 99.5355 174.571 71.8202 175.971 71.3925C206.333 64.8059 303.821 98.1498 348.869 120.236V116.216C301.277 90.7761 297.332 73.2744 229.01 1.31732C228.02 0.256609 224.98 -0.119771 224.878 0.068419C216.169 12.6258 168.816 68.3815 95.2689 114.403L95.1152 117.191L95.1323 117.174Z" fill="#585866"/>
<path d="M162.926 23.1474C154.815 24.0028 147.284 25.0806 144.227 29.0326C142.469 32.0266 141.82 38.9554 141.085 45.063H139.702C139.053 38.8356 138.234 31.8213 136.099 28.7931C133.043 25.1662 125.614 24.2594 117.742 23.3014V21.9156C125.853 21.0602 133.384 19.9824 136.441 16.0304C138.2 13.0365 138.848 6.10763 139.583 0H140.966C141.615 6.22739 142.434 13.2418 144.569 16.2699C147.626 19.8968 155.054 20.8036 162.926 21.7616V23.1474Z" fill="#585866"/>
<path d="M30.447 173.221H38.063L68.51 235.649H61.116C57.4275 228.531 54.1147 222.03 51.6557 214.28L50.6824 213.562C36.2188 214.93 31.8985 214.999 18.0838 213.562L17.0421 214.366C14.549 221.089 10.8434 228.857 7.39402 235.649H0L30.447 173.221ZM48.0355 209.576L48.6844 208.857C43.22 199.02 38.7119 189.97 35.3479 179.414H33.0938C29.4736 189.97 24.9826 199.328 19.6036 208.789L20.1841 209.593C31.2666 208.395 37.1238 208.156 48.0526 209.593H48.0355V209.576Z" fill="#585866"/>
<path d="M104.045 173.221H110.466C126.671 190.739 141.203 207.334 156.469 226.598H157.596C156.076 207.882 156.315 188.909 156.315 173.221H163.317V235.649H156.828C142.467 220.114 126.09 202.185 110.893 183.212H109.765C111.285 201.603 111.132 217.137 111.132 235.649H104.062V173.221H104.045Z" fill="#585866"/>
<path d="M207.545 173.221H234.047C259.098 173.221 269.685 187.13 269.685 204.033C269.685 222.612 256.742 235.649 234.918 235.649H207.545V173.221ZM235.243 229.729C251.704 229.729 262.291 220.525 262.291 204.512C262.291 187.711 250.799 179.14 232.425 179.14C226.739 179.14 220.933 179.14 214.375 178.028L213.334 178.832C214.785 196.129 214.854 212.758 213.402 229.883L214.375 230.858C221.923 229.746 228.668 229.746 235.26 229.746L235.243 229.729Z" fill="#585866"/>
<path d="M309.098 173.221H356.399V179.14C343.455 179.14 330.545 179.465 315.945 178.028L314.904 178.832C316.031 185.949 316.099 193.477 315.057 201.021L315.928 201.894C329.811 200.628 342.021 200.628 354.469 200.628V206.701C342.038 206.701 329.811 206.701 315.928 205.333L315.057 206.205C316.099 213.972 316.184 221.894 314.989 229.9L315.962 230.875C330.819 229.609 344.053 229.609 357.389 229.609V235.683H309.132V173.255H309.115L309.098 173.221Z" fill="#585866"/>
<path d="M390.175 218.677L396.664 216.504C399.892 226.342 408.703 230.995 418.488 230.995C426.838 230.995 436.469 227.642 436.469 219.396C436.469 211.15 427.623 209.952 420.486 208.121L413.501 206.274C406.364 204.426 392.873 200.594 392.873 188.823C392.873 177.053 405.083 171.938 417.275 171.938C429.468 171.938 438.808 177.463 442.07 186.822L435.718 189.217C433.003 182.339 426.07 177.84 416.541 177.84C407.542 177.84 400.165 181.929 400.165 188.242C400.165 196.163 411.486 199.054 415.977 200.234L423.371 202.219C431.722 204.46 444 207.095 444 218.472C444 229.849 432.183 236.966 418.368 236.966C407.132 236.966 394.513 232.158 390.09 218.643H390.158L390.175 218.677Z" fill="#585866"/>
</g>
<defs>
<clipPath id="clip0_351_338">
<rect width="444" height="237" fill="white"/>
</clipPath>
</defs>
</svg>
