<svg width="52" height="72" viewBox="0 0 52 72" fill="none" xmlns="http://www.w3.org/2000/svg">
<g clip-path="url(#clip0_351_317)">
<path d="M25.1004 6.14665C25.5608 6.7958 25.7278 8.29189 25.8695 9.62062H26.1629C26.3198 8.32232 26.4564 6.84145 26.8308 6.19737C27.4785 5.35043 29.0825 5.12221 30.8028 4.93963V4.64549C29.128 4.44263 27.5493 4.24484 26.9017 3.47397C26.4412 2.82482 26.2742 1.32873 26.1326 0H25.8391C25.6822 1.2983 25.5456 2.77918 25.1712 3.42326C24.5235 4.2702 22.9196 4.49841 21.1992 4.68099V4.97514C22.874 5.178 24.4527 5.37578 25.1004 6.14665Z" fill="#191919"/>
<path d="M23.836 63.6422C24.9441 65.2042 25.3489 68.7999 25.6829 72H26.3862C26.7606 68.8709 27.0895 65.3107 27.9902 63.769C29.5486 61.7302 33.4092 61.1825 37.5431 60.7463V60.0414C33.5155 59.5495 29.7206 59.0778 28.1622 57.2217C27.0541 55.6596 26.6493 52.0639 26.3153 48.8638H25.612C25.2376 51.9929 24.9087 55.5531 24.0081 57.0949C22.4496 59.1336 18.589 59.6813 14.4551 60.1175V60.8224C18.4827 61.3143 22.2776 61.786 23.836 63.6422Z" fill="#191919"/>
<path d="M48.0989 20.9047C47.6385 20.2555 47.4715 18.7595 47.3298 17.4307H47.0364C46.8795 18.729 46.7429 20.2099 46.3685 20.854C45.7208 21.7009 44.1168 21.9291 42.3965 22.1117V22.4059C44.0713 22.6087 45.65 22.8065 46.2976 23.5774C46.7581 24.2265 46.925 25.7226 47.0667 27.0513H47.3602C47.517 25.753 47.6537 24.2722 48.0281 23.6281C48.6757 22.7812 50.2797 22.5529 52.0001 22.3704V22.0762C50.3253 21.8734 48.7466 21.6756 48.0989 20.9047Z" fill="#191919"/>
<path d="M9.59772 22.0762C7.92291 21.8734 6.34424 21.6756 5.69658 20.9047C5.23614 20.2555 5.06916 18.7595 4.92749 17.4307H4.63402C4.47716 18.729 4.34055 20.2099 3.96612 20.854C3.31846 21.7009 1.71449 21.9291 -0.00585938 22.1117V22.4059C1.66895 22.6087 3.24762 22.8065 3.89528 23.5774C4.35572 24.2265 4.5227 25.7226 4.66438 27.0513H4.95785C5.1147 25.753 5.25132 24.2722 5.62575 23.6281C6.27341 22.7812 7.87738 22.5529 9.59772 22.3704V22.0762Z" fill="#191919"/>
</g>
<defs>
<clipPath id="clip0_351_317">
<rect width="52" height="72" fill="white"/>
</clipPath>
</defs>
</svg>
