<svg width="277" height="35" viewBox="0 0 277 35" fill="none" xmlns="http://www.w3.org/2000/svg">
<path d="M0 34.1127C10.3618 28.9778 23.1877 20.907 23.5984 20.7808C32.4544 18.8657 60.9179 28.5779 74.0702 34.9966V33.8286C60.1807 26.4208 59.0224 21.3279 39.0885 0.377786C38.7937 0.0621133 37.9091 -0.043111 37.8775 0.00950111C35.3397 3.67131 21.5134 19.8969 0.0421212 33.3025L0 34.1127Z" fill="#191919"/>
<path d="M19.7855 6.73332C17.4162 6.98586 15.2259 7.29101 14.3308 8.44847C13.8148 9.32184 13.6253 11.3421 13.4147 13.1099H13.0145C12.825 11.3001 12.5828 9.2587 11.9615 8.37482C11.0664 7.32257 8.89717 7.05951 6.60156 6.77541V6.37556C8.97088 6.12302 11.1612 5.81787 12.0563 4.6604C12.5722 3.78704 12.7618 1.76673 12.9724 -0.0010376H13.3726C13.5621 1.80882 13.8043 3.85017 14.4256 4.73406C15.3207 5.7863 17.4899 6.04936 19.7855 6.33347V6.73332Z" fill="#191919"/>
<path d="M266.377 23.7973V14.3228C266.377 13.214 266.377 12.1053 266.352 11.1226H267.989C268.04 11.5005 268.09 13.0124 268.065 13.3904C268.594 12.1809 269.627 10.8202 272.172 10.8202C274.491 10.8202 276.431 12.1557 276.431 15.6079V23.7973H274.743V15.8346C274.743 13.7432 273.886 12.3573 271.794 12.3573C269.073 12.3573 268.065 14.5495 268.065 17.2206V23.7973H266.377Z" fill="#191919"/>
<path d="M257.655 10.8202C261.107 10.8202 263.375 13.4408 263.375 17.4221C263.375 21.0255 261.359 24.0997 257.529 24.0997C254.001 24.0997 251.859 21.2775 251.859 17.4725C251.859 13.7936 253.926 10.8202 257.655 10.8202ZM257.579 12.3069C254.908 12.3069 253.598 14.4739 253.598 17.4473C253.598 20.3703 255.135 22.613 257.63 22.613C260.175 22.613 261.611 20.5215 261.611 17.4725C261.611 14.5243 260.2 12.3069 257.579 12.3069Z" fill="#191919"/>
<path d="M247.158 23.7974V11.1227H248.846V23.7974H247.158ZM248.846 7.84689H247.158V5.25146H248.846V7.84689Z" fill="#191919"/>
<path d="M237.766 12.5841V11.1226H240.059V7.26727H241.747V11.1226H244.67V12.5841H241.747V20.446C241.747 21.7815 242.049 22.5122 243.234 22.5122C243.586 22.5122 244.065 22.487 244.443 22.3862V23.7469C243.964 23.9233 243.309 23.9737 242.73 23.9737C240.941 23.9737 240.059 23.0666 240.059 21.0003V12.5841H237.766Z" fill="#191919"/>
<path d="M230.833 10.8202C234.285 10.8202 236.553 13.4408 236.553 17.4221C236.553 21.0255 234.537 24.0997 230.707 24.0997C227.179 24.0997 225.037 21.2775 225.037 17.4725C225.037 13.7936 227.103 10.8202 230.833 10.8202ZM230.757 12.3069C228.086 12.3069 226.776 14.4739 226.776 17.4473C226.776 20.3703 228.313 22.613 230.808 22.613C233.353 22.613 234.789 20.5215 234.789 17.4725C234.789 14.5243 233.378 12.3069 230.757 12.3069Z" fill="#191919"/>
<path d="M204.906 23.7973V14.3983C204.906 13.2896 204.906 12.1305 204.881 11.1226H206.519C206.544 11.5257 206.594 12.5337 206.569 13.2392C207.124 12.0297 208.283 10.8202 210.324 10.8202C212.113 10.8202 213.448 11.7021 213.927 13.214C214.582 11.9541 215.817 10.8202 218.034 10.8202C220.025 10.8202 222.016 11.9793 222.016 15.4567V23.7973H220.353V15.6583C220.353 14.0708 219.773 12.3573 217.581 12.3573C215.313 12.3573 214.28 14.1464 214.28 16.515V23.7973H212.642V15.7087C212.642 13.9448 212.113 12.3573 209.946 12.3573C207.678 12.3573 206.569 14.2976 206.569 16.7922V23.7973H204.906Z" fill="#191919"/>
<path d="M184.433 23.7973V14.3228C184.433 13.214 184.433 12.1053 184.408 11.1226H186.046C186.096 11.5005 186.147 13.0124 186.122 13.3904C186.651 12.1809 187.684 10.8202 190.229 10.8202C192.547 10.8202 194.488 12.1557 194.488 15.6079V23.7973H192.799V15.8346C192.799 13.7432 191.942 12.3573 189.851 12.3573C187.13 12.3573 186.122 14.5495 186.122 17.2206V23.7973H184.433Z" fill="#191919"/>
<path d="M178.773 23.7974V11.1227H180.462V23.7974H178.773ZM180.462 7.84689H178.773V5.25146H180.462V7.84689Z" fill="#191919"/>
<path d="M158.85 11.1226H160.689C163.033 17.8254 164.141 21.0003 164.544 22.3359H164.57C165.023 20.824 165.981 17.901 168.274 11.1226H169.987L165.326 24.4525C163.99 28.2071 163.083 29.089 160.639 29.089C160.21 29.089 159.832 29.0638 159.379 29.0134V27.4511C159.732 27.5015 160.11 27.5267 160.488 27.5267C162.201 27.5267 162.806 26.7204 163.662 24.3265L158.85 11.1226Z" fill="#191919"/>
<path d="M150.457 12.5841V11.1226H152.75V7.26727H154.438V11.1226H157.361V12.5841H154.438V20.446C154.438 21.7815 154.741 22.5122 155.925 22.5122C156.278 22.5122 156.757 22.487 157.135 22.3862V23.7469C156.656 23.9233 156.001 23.9737 155.421 23.9737C153.632 23.9737 152.75 23.0666 152.75 21.0003V12.5841H150.457Z" fill="#191919"/>
<path d="M146.439 23.7974V11.1227H148.128V23.7974H146.439ZM148.128 7.84689H146.439V5.25146H148.128V7.84689Z" fill="#191919"/>
<path d="M138.121 23.7973V14.5747C138.121 12.6093 138.096 11.6517 138.096 11.1226H139.734C139.784 11.5005 139.809 12.4077 139.809 13.844C140.515 12.0297 142.077 10.8958 144.143 10.8202V12.5589C141.523 12.6849 139.809 14.2976 139.809 17.3969V23.7973H138.121Z" fill="#191919"/>
<path d="M134.169 11.1226V20.0932C134.169 21.3279 134.194 23.1926 134.194 23.7974H132.556C132.506 23.4698 132.481 22.6634 132.481 21.7311C131.901 23.1926 130.641 24.0997 128.499 24.0997C126.534 24.0997 124.316 23.2178 124.316 19.4884V11.1226H126.005V19.1105C126.005 20.8744 126.559 22.5626 128.877 22.5626C131.473 22.5626 132.481 21.1011 132.481 17.6742V11.1226H134.169Z" fill="#191919"/>
<path d="M119.975 19.9924H121.663C121.084 22.2098 119.622 24.0997 116.598 24.0997C113.298 24.0997 111.08 21.6806 111.08 17.5229C111.08 13.9952 113.02 10.8202 116.75 10.8202C120.177 10.8202 121.462 13.2392 121.663 14.9527H119.975C119.622 13.5668 118.74 12.3069 116.724 12.3069C114.255 12.3069 112.844 14.4235 112.844 17.4473C112.844 20.4207 114.179 22.613 116.624 22.613C118.362 22.613 119.37 21.731 119.975 19.9924Z" fill="#191919"/>
<path d="M108.898 17.7245H99.7506C99.7506 20.6727 101.237 22.613 103.556 22.613C105.773 22.613 106.504 21.4035 106.932 20.4207H108.646C108.116 22.0838 106.781 24.0997 103.505 24.0997C99.5742 24.0997 98.0371 20.8239 98.0371 17.5733C98.0371 13.8944 99.8766 10.8202 103.631 10.8202C107.638 10.8202 108.923 14.1464 108.923 16.6662C108.923 17.0442 108.923 17.3969 108.898 17.7245ZM99.8262 16.4142H107.184C107.159 14.096 105.949 12.2565 103.606 12.2565C101.162 12.2565 100.078 13.9448 99.8262 16.4142Z" fill="#191919"/>
<path d="M83.0039 18.9845H84.8686C85.3725 21.2271 86.8592 22.5122 89.6059 22.5122C92.6045 22.5122 93.7636 21.0507 93.7636 19.2365C93.7636 17.3466 92.9068 16.2379 89.1775 15.3307C85.2718 14.348 83.7347 13.0629 83.7347 10.5431C83.7347 8.09882 85.5237 5.95697 89.3791 5.95697C93.3856 5.95697 95.0739 8.35081 95.3007 10.5683H93.4612C93.0832 8.82957 91.9745 7.49406 89.3035 7.49406C86.9348 7.49406 85.6245 8.57759 85.6245 10.4171C85.6245 12.2061 86.7081 12.9117 89.883 13.6928C94.8723 14.9276 95.6786 16.893 95.6786 19.0853C95.6786 21.7815 93.688 23.9989 89.5051 23.9989C85.0954 23.9989 83.3567 21.5043 83.0039 18.9845Z" fill="#191919"/>
</svg>
