<svg width="72" height="72" viewBox="0 0 72 72" fill="none" xmlns="http://www.w3.org/2000/svg">
<g clip-path="url(#clip0_351_358)">
<path d="M55.6581 0H16.3419C7.31653 0 0 7.31653 0 16.3419V55.6581C0 64.6835 7.31653 72 16.3419 72H55.6581C64.6835 72 72 64.6835 72 55.6581V16.3419C72 7.31653 64.6835 0 55.6581 0Z" fill="#585866"/>
<path d="M8.93359 48.1519C16.5048 44.3962 25.878 38.4966 26.1819 38.4043C32.6568 36.9986 53.4546 44.1031 63.0666 48.8032V47.9511C52.9173 42.5346 52.0706 38.806 37.498 23.4844C37.2864 23.2564 36.6405 23.1804 36.6188 23.2184C34.7626 25.8941 24.6622 37.7639 8.97159 47.5604L8.93902 48.1519H8.93359Z" fill="#191919"/>
<path d="M23.3973 28.1302C21.666 28.3148 20.0595 28.5427 19.4082 29.384C19.0337 30.0244 18.8926 31.5007 18.7406 32.7978H18.4475C18.3064 31.4735 18.1327 29.981 17.6768 29.3351C17.0255 28.5644 15.4407 28.369 13.7637 28.1628V27.8697C15.495 27.6852 17.1015 27.4572 17.7528 26.616C18.1273 25.9756 18.2684 24.4993 18.4204 23.2021H18.7135C18.8546 24.5264 19.0283 26.019 19.4842 26.6648C20.1354 27.4355 21.7203 27.6309 23.3973 27.8372V28.1302Z" fill="#191919"/>
</g>
<defs>
<clipPath id="clip0_351_358">
<rect width="72" height="72" fill="white"/>
</clipPath>
</defs>
</svg>
